<?xml version="1.0" encoding="UTF-8"?>
<svg version="1.1" viewBox="0 0 1024 940" width="256" height="235" xmlns="http://www.w3.org/2000/svg">
<path transform="translate(224,1)" d="m0 0h569l40 2 27 4 28 7 21 8 21 11 15 10 14 11 13 13 10 11 8 11 8 13 10 21 6 18 4 21 2 20v572l-2 23-4 23-9 27-8 16-9 14-11 14-12 13-8 7-13 10-19 12-16 8-20 8-21 5-23 3-14 1h-642l-25-2-20-3-17-5-19-8-19-10-12-8-12-9-15-14-10-11-11-15-9-16-7-14-7-20-4-15-2-9v-616l7-26 7-18 9-19 12-18 8-10 12-13 8-7 13-10 19-12 25-12 18-6 25-6 24-3z" fill="#03060A"/>
<path transform="translate(508,235)" d="m0 0 5 1 15 34 8 16 10 19 8 12 10 14 14 15 10 9 14 10 17 10 29 14 33 13 13 5 9 5-2 2-21 7-28 11-16 7-16 8-17 10-14 10-14 12-10 11-11 15-9 15-7 12-8 16-12 26-4 12-4 3-5-5-6-15-11-24-13-25-12-19-11-14-10-11-11-9-17-12-18-10-23-11-34-13-23-8v-2l13-6 35-13 25-11 21-11 12-8 9-7 14-12 11-12 13-19 12-21 8-16 13-29 5-10z" fill="#8AA3DD"/>
</svg>
